<svg width="241" height="40" viewBox="0 0 241 40" fill="none" xmlns="http://www.w3.org/2000/svg">
<path fill-rule="evenodd" clip-rule="evenodd" d="M20 0C13.0179 0 6.87151 3.57778 3.29405 9C10.5383 13.7215 13.0109 21.2295 15.1975 27.8695C15.7896 29.6675 16.3607 31.4019 17 33C21 23.5 28.5 11 35 6.77088C31.3353 2.61877 25.9735 0 20 0Z" fill="#323131"/>
<path fill-rule="evenodd" clip-rule="evenodd" d="M40 20C40 31.0457 31.0457 40 20 40C8.9543 40 0 31.0457 0 20C0 16.0308 1.15625 12.3317 3.1503 9.22104C10.327 12.8989 13.5515 22.6501 15.9033 29.7622C16.2877 30.9247 16.6488 32.0166 17 33C21 25 29.5 10 34.9623 6.72835C38.0966 10.2593 40 14.9074 40 20Z" fill="#E94A46"/>
<path d="M12.5664 31.5044V30.4425H10.7965C8.31858 29.5575 9.38052 26.9027 10.2655 25.6637C10.5605 25.0738 11.0088 23.6814 10.4425 22.8319C9.8761 21.9823 9.38052 22.9499 9.20353 23.5398C7.43362 28.4956 5.30973 30.0885 3.36282 30.4425L4.09848 31.5044H12.5664Z" fill="white"/>
<path d="M26.3717 21.9469L23.0088 27.7876C23.0088 28.8496 25.4867 30.7965 21.2389 30.7965C21.1209 31.0325 20.9557 31.5044 21.2389 31.5044H32.3894C32.4484 31.2095 32.531 30.5841 32.3894 30.4425C29.3805 30.6195 27.6106 23.7168 26.3717 21.9469Z" fill="white"/>
<path fill-rule="evenodd" clip-rule="evenodd" d="M16.2832 32.5664C13.8053 22.4779 9.55751 12.9204 3.8938 9.73452L4.60176 8.84957C7.55013 9.93581 9.81824 12.2465 11.8832 14.3503C12.1735 14.646 12.4598 14.9377 12.7434 15.2213L19.115 3.18585L23.7168 13.4513C23.9897 13.1785 24.2711 12.8963 24.5592 12.6074C27.0743 10.0857 30.0954 7.05655 32.3186 5.30975C33.0265 5.78172 34.3884 7.14296 34.3363 7.18585C27.2194 13.0448 19.6383 28.5924 17.9609 32.0325C17.8445 32.2712 17.7565 32.4516 17.6991 32.5664C16.9911 33.9823 16.4602 33.1564 16.2832 32.5664ZM18.6667 12L15 18L17.9313 23.5398L21.3333 18L18.6667 12Z" fill="white"/>
<circle cx="20" cy="20" r="19.469" stroke="#323131" stroke-width="1.06195"/>
<path d="M53.5334 29H50.6214L57.1644 10.8182H60.3338L66.8768 29H63.9648L58.8246 14.1207H58.6825L53.5334 29ZM54.0217 21.88H63.4677V24.1882H54.0217V21.88ZM69.1872 10.8182L74.2476 25.6264H74.4518L79.5122 10.8182H82.4774L75.9344 29H72.765L66.222 10.8182H69.1872ZM84.2063 13.1797V10.8182H98.2777V13.1797H92.6048V29H89.8704V13.1797H84.2063ZM116.4 19.9091C116.4 21.8504 116.044 23.5194 115.334 24.9162C114.624 26.3071 113.65 27.3783 112.413 28.13C111.182 28.8757 109.783 29.2486 108.214 29.2486C106.64 29.2486 105.234 28.8757 103.997 28.13C102.766 27.3783 101.796 26.3041 101.085 24.9073C100.375 23.5105 100.02 21.8445 100.02 19.9091C100.02 17.9678 100.375 16.3017 101.085 14.9109C101.796 13.5141 102.766 12.4428 103.997 11.6971C105.234 10.9454 106.64 10.5696 108.214 10.5696C109.783 10.5696 111.182 10.9454 112.413 11.6971C113.65 12.4428 114.624 13.5141 115.334 14.9109C116.044 16.3017 116.4 17.9678 116.4 19.9091ZM113.683 19.9091C113.683 18.4295 113.443 17.1836 112.964 16.1715C112.49 15.1535 111.839 14.3841 111.011 13.8633C110.188 13.3365 109.256 13.0732 108.214 13.0732C107.167 13.0732 106.232 13.3365 105.409 13.8633C104.586 14.3841 103.935 15.1535 103.456 16.1715C102.982 17.1836 102.745 18.4295 102.745 19.9091C102.745 21.3887 102.982 22.6375 103.456 23.6555C103.935 24.6676 104.586 25.437 105.409 25.9638C106.232 26.4846 107.167 26.745 108.214 26.745C109.256 26.745 110.188 26.4846 111.011 25.9638C111.839 25.437 112.49 24.6676 112.964 23.6555C113.443 22.6375 113.683 21.3887 113.683 19.9091Z" fill="#323131"/>
<path d="M119.82 10.8182H123.149L128.937 24.9517H129.15L134.939 10.8182H138.268V29H135.658V15.843H135.489L130.127 28.9734H127.961L122.599 15.8342H122.43V29H119.82V10.8182ZM143.792 29H140.88L147.423 10.8182H150.593L157.136 29H154.224L149.083 14.1207H148.941L143.792 29ZM144.28 21.88H153.726V24.1882H144.28V21.88ZM156.716 13.1797V10.8182H170.787V13.1797H165.115V29H162.38V13.1797H156.716ZM173.284 29H170.372L176.915 10.8182H180.085L186.628 29H183.716L178.576 14.1207H178.434L173.284 29ZM173.773 21.88H183.219V24.1882H173.773V21.88ZM195.139 29H189.253V10.8182H195.326C197.107 10.8182 198.637 11.1822 199.916 11.9102C201.194 12.6322 202.174 13.6709 202.854 15.0263C203.541 16.3757 203.884 17.9944 203.884 19.8825C203.884 21.7764 203.538 23.404 202.845 24.7653C202.159 26.1265 201.164 27.1741 199.862 27.908C198.56 28.636 196.986 29 195.139 29ZM191.997 26.603H194.988C196.373 26.603 197.525 26.3426 198.442 25.8217C199.359 25.295 200.046 24.5344 200.502 23.5401C200.957 22.5399 201.185 21.3207 201.185 19.8825C201.185 18.4561 200.957 17.2457 200.502 16.2514C200.052 15.2571 199.38 14.5025 198.486 13.9876C197.593 13.4727 196.483 13.2152 195.157 13.2152H191.997V26.603ZM223.089 19.9091C223.089 21.8504 222.734 23.5194 222.024 24.9162C221.313 26.3071 220.34 27.3783 219.103 28.13C217.872 28.8757 216.472 29.2486 214.904 29.2486C213.329 29.2486 211.924 28.8757 210.687 28.13C209.456 27.3783 208.485 26.3041 207.775 24.9073C207.065 23.5105 206.709 21.8445 206.709 19.9091C206.709 17.9678 207.065 16.3017 207.775 14.9109C208.485 13.5141 209.456 12.4428 210.687 11.6971C211.924 10.9454 213.329 10.5696 214.904 10.5696C216.472 10.5696 217.872 10.9454 219.103 11.6971C220.34 12.4428 221.313 13.5141 222.024 14.9109C222.734 16.3017 223.089 17.9678 223.089 19.9091ZM220.372 19.9091C220.372 18.4295 220.133 17.1836 219.653 16.1715C219.18 15.1535 218.529 14.3841 217.7 13.8633C216.878 13.3365 215.945 13.0732 214.904 13.0732C213.856 13.0732 212.921 13.3365 212.098 13.8633C211.276 14.3841 210.625 15.1535 210.145 16.1715C209.672 17.1836 209.435 18.4295 209.435 19.9091C209.435 21.3887 209.672 22.6375 210.145 23.6555C210.625 24.6676 211.276 25.437 212.098 25.9638C212.921 26.4846 213.856 26.745 214.904 26.745C215.945 26.745 216.878 26.4846 217.7 25.9638C218.529 25.437 219.18 24.6676 219.653 23.6555C220.133 22.6375 220.372 21.3887 220.372 19.9091ZM226.509 29V10.8182H232.99C234.399 10.8182 235.568 11.0608 236.497 11.5462C237.432 12.0315 238.13 12.7032 238.592 13.5614C239.054 14.4137 239.284 15.3991 239.284 16.5178C239.284 17.6304 239.051 18.61 238.583 19.4563C238.121 20.2968 237.423 20.9508 236.488 21.4183C235.559 21.8859 234.39 22.1197 232.981 22.1197H228.072V19.7582H232.733C233.62 19.7582 234.342 19.6309 234.899 19.3764C235.461 19.1219 235.872 18.752 236.133 18.2667C236.393 17.7814 236.523 17.1984 236.523 16.5178C236.523 15.8312 236.39 15.2364 236.124 14.7333C235.864 14.2302 235.452 13.8455 234.89 13.5792C234.334 13.3069 233.603 13.1708 232.697 13.1708H229.252V29H226.509ZM235.485 20.7969L239.977 29H236.852L232.449 20.7969H235.485Z" fill="#E94A46"/>
</svg>
