<svg width="48" height="48" viewBox="0 0 48 48" fill="none" xmlns="http://www.w3.org/2000/svg">
<rect opacity="0.5" x="12" width="36" height="34" fill="#E94A46"/>
<g clip-path="url(#clip0_30_194)">
<path d="M26 4V6.556L36 9.892L43.264 7.472L44.53 11.264L38.466 13.286L44.658 30.31C42.474 32.584 39.4 34 36 34C32.598 34 29.526 32.584 27.342 30.31L33.53 13.286L26 10.774V38H34V42H14V38H22V10.774L14.464 13.286L20.656 30.31C18.474 32.584 15.4 34 12 34C8.59801 34 5.52601 32.584 3.34201 30.31L9.53001 13.286L3.47001 11.266L4.73601 7.47L12 9.89L22 6.556V4H26ZM36 18.206L33.164 26H38.834L36 18.206ZM12 18.206L9.16401 26H14.834L12 18.206Z" fill="#323131"/>
</g>
<defs>
<clipPath id="clip0_30_194">
<rect width="48" height="48" fill="white"/>
</clipPath>
</defs>
</svg>
